<svg fill="#000000" xmlns="http://www.w3.org/2000/svg" viewBox="0 0 24 24" width="24px" height="24px"><path d="M 18.5 0 C 16.566406 0 15 1.566406 15 3.5 C 15 5.433594 16.566406 7 18.5 7 C 20.433594 7 22 5.433594 22 3.5 C 22 1.566406 20.433594 0 18.5 0 Z M 10.5 1 C 9.121094 1 8 2.121094 8 3.5 C 8 4.878906 9.121094 6 10.5 6 C 11.878906 6 13 4.878906 13 3.5 C 13 2.121094 11.878906 1 10.5 1 Z M 4 2 C 2.894531 2 2 2.894531 2 4 C 2 5.105469 2.894531 6 4 6 C 5.105469 6 6 5.105469 6 4 C 6 2.894531 5.105469 2 4 2 Z M 4 7 C 2.300781 7 1 8.300781 1 10 L 1 17 L 6 17 L 6 20 L 12 20 L 12 24 L 23 24 L 23 14.8125 C 23 14.414063 22.90625 13.6875 22.90625 13.6875 C 22.605469 11.085938 20.300781 9 17.5 9 C 16 9 14.6875 9.601563 13.6875 10.5 C 13.085938 9 11.699219 8 10 8 C 8.800781 8 7.707031 8.605469 6.90625 9.40625 C 6.707031 8.105469 5.5 7 4 7 Z"/></svg>