<svg data-v-423bf9ae="" xmlns="http://www.w3.org/2000/svg" viewBox="0 0 477 177" class="iconLeft"><!----><!----><!----><g data-v-423bf9ae="" id="7306f60e-6aad-4430-b322-0cca4a338ef3" fill="#09322F" transform="matrix(4.197868347167969,0,0,4.197868347167969,195.51449584960938,32.38966369628906)"><path d="M0.21 11.28L0.21 10.29L1.57 10.29L1.57 8.07L2.84 8.07L2.84 10.29L5.06 10.29L5.06 11.28L2.84 11.28L2.84 14.42L2.84 14.42Q2.84 14.95 2.89 15.29L2.89 15.29L2.89 15.29Q2.94 15.62 3.05 15.81L3.05 15.81L3.05 15.81Q3.15 16.00 3.32 16.06L3.32 16.06L3.32 16.06Q3.48 16.13 3.71 16.13L3.71 16.13L3.71 16.13Q4.01 16.13 4.38 16.00L4.38 16.00L4.38 16.00Q4.74 15.87 5.20 15.62L5.20 15.62L5.20 16.71L5.20 16.71Q4.72 17.02 4.29 17.14L4.29 17.14L4.29 17.14Q3.86 17.26 3.50 17.26L3.50 17.26L3.50 17.26Q3.10 17.26 2.75 17.17L2.75 17.17L2.75 17.17Q2.40 17.08 2.14 16.84L2.14 16.84L2.14 16.84Q1.87 16.61 1.72 16.23L1.72 16.23L1.72 16.23Q1.57 15.84 1.57 15.24L1.57 15.24L1.57 11.28L0.21 11.28ZM12.47 13.77L7.62 13.77L7.62 13.77Q7.64 14.38 7.81 14.82L7.81 14.82L7.81 14.82Q7.98 15.26 8.27 15.56L8.27 15.56L8.27 15.56Q8.56 15.85 8.95 15.99L8.95 15.99L8.95 15.99Q9.34 16.13 9.81 16.13L9.81 16.13L9.81 16.13Q10.47 16.13 11.11 15.98L11.11 15.98L11.11 15.98Q11.74 15.83 12.37 15.45L12.37 15.45L12.51 16.58L12.51 16.58Q12.15 16.76 11.80 16.89L11.80 16.89L11.80 16.89Q11.45 17.02 11.10 17.10L11.10 17.10L11.10 17.10Q10.75 17.19 10.39 17.22L10.39 17.22L10.39 17.22Q10.04 17.26 9.64 17.26L9.64 17.26L9.64 17.26Q8.98 17.26 8.39 17.03L8.39 17.03L8.39 17.03Q7.79 16.80 7.34 16.35L7.34 16.35L7.34 16.35Q6.89 15.91 6.62 15.24L6.62 15.24L6.62 15.24Q6.36 14.58 6.36 13.71L6.36 13.71L6.36 13.71Q6.36 12.86 6.59 12.17L6.59 12.17L6.59 12.17Q6.82 11.48 7.24 11.00L7.24 11.00L7.24 11.00Q7.66 10.51 8.27 10.24L8.27 10.24L8.27 10.24Q8.88 9.98 9.64 9.98L9.64 9.98L9.64 9.98Q10.20 9.98 10.63 10.11L10.63 10.11L10.63 10.11Q11.06 10.25 11.38 10.48L11.38 10.48L11.38 10.48Q11.69 10.72 11.90 11.03L11.90 11.03L11.90 11.03Q12.11 11.35 12.24 11.71L12.24 11.71L12.24 11.71Q12.37 12.07 12.42 12.47L12.42 12.47L12.42 12.47Q12.48 12.86 12.48 13.24L12.48 13.24L12.48 13.51L12.48 13.51Q12.48 13.68 12.47 13.77L12.47 13.77ZM9.54 11.01L9.54 11.01L9.54 11.01Q8.78 11.01 8.31 11.45L8.31 11.45L8.31 11.45Q7.83 11.89 7.68 12.82L7.68 12.82L11.25 12.82L11.25 12.82Q11.25 12.38 11.12 12.04L11.12 12.04L11.12 12.04Q10.99 11.70 10.76 11.47L10.76 11.47L10.76 11.47Q10.53 11.24 10.22 11.12L10.22 11.12L10.22 11.12Q9.91 11.01 9.54 11.01ZM19.65 12.58L19.65 17.09L18.39 17.09L18.39 13.19L18.39 13.19Q18.39 12.56 18.34 12.16L18.34 12.16L18.34 12.16Q18.29 11.77 18.18 11.55L18.18 11.55L18.18 11.55Q18.07 11.33 17.88 11.25L17.88 11.25L17.88 11.25Q17.68 11.18 17.40 11.18L17.40 11.18L17.40 11.18Q17.14 11.18 16.89 11.28L16.89 11.28L16.89 11.28Q16.64 11.38 16.41 11.57L16.41 11.57L16.41 11.57Q16.18 11.76 15.99 12.01L15.99 12.01L15.99 12.01Q15.79 12.27 15.65 12.58L15.65 12.58L15.65 17.09L14.39 17.09L14.39 12.89L14.39 12.89Q14.39 11.87 14.27 11.17L14.27 11.17L14.27 11.17Q14.16 10.47 14.05 10.12L14.05 10.12L15.28 10.12L15.28 10.12Q15.35 10.34 15.41 10.63L15.41 10.63L15.41 10.63Q15.46 10.93 15.50 11.18L15.50 11.18L15.50 11.18Q15.81 10.81 16.10 10.58L16.10 10.58L16.10 10.58Q16.39 10.35 16.67 10.22L16.67 10.22L16.67 10.22Q16.95 10.08 17.23 10.03L17.23 10.03L17.23 10.03Q17.51 9.98 17.81 9.98L17.81 9.98L17.81 9.98Q18.14 9.98 18.42 10.08L18.42 10.08L18.42 10.08Q18.69 10.17 18.90 10.33L18.90 10.33L18.90 10.33Q19.11 10.49 19.26 10.69L19.26 10.69L19.26 10.69Q19.41 10.90 19.49 11.13L19.49 11.13L19.49 11.13Q19.81 10.78 20.11 10.56L20.11 10.56L20.11 10.56Q20.41 10.34 20.70 10.21L20.70 10.21L20.70 10.21Q20.99 10.08 21.26 10.03L21.26 10.03L21.26 10.03Q21.54 9.98 21.81 9.98L21.81 9.98L21.81 9.98Q22.33 9.98 22.68 10.15L22.68 10.15L22.68 10.15Q23.04 10.32 23.25 10.64L23.25 10.64L23.25 10.64Q23.47 10.97 23.56 11.46L23.56 11.46L23.56 11.46Q23.65 11.94 23.65 12.58L23.65 12.58L23.65 17.09L22.39 17.09L22.39 13.33L22.39 13.33Q22.39 12.67 22.34 12.25L22.34 12.25L22.34 12.25Q22.29 11.83 22.18 11.59L22.18 11.59L22.18 11.59Q22.07 11.35 21.88 11.27L21.88 11.27L21.88 11.27Q21.68 11.18 21.40 11.18L21.40 11.18L21.40 11.18Q21.14 11.18 20.90 11.28L20.90 11.28L20.90 11.28Q20.65 11.38 20.42 11.56L20.42 11.56L20.42 11.56Q20.19 11.74 20.00 12.00L20.00 12.00L20.00 12.00Q19.80 12.26 19.65 12.58L19.65 12.58ZM27.04 13.16L27.04 15.31L27.04 15.31Q27.38 15.56 27.64 15.72L27.64 15.72L27.64 15.72Q27.90 15.88 28.11 15.97L28.11 15.97L28.11 15.97Q28.32 16.06 28.52 16.10L28.52 16.10L28.52 16.10Q28.71 16.13 28.95 16.13L28.95 16.13L28.95 16.13Q29.31 16.13 29.64 15.96L29.64 15.96L29.64 15.96Q29.98 15.79 30.23 15.47L30.23 15.47L30.23 15.47Q30.49 15.14 30.64 14.68L30.64 14.68L30.64 14.68Q30.80 14.22 30.80 13.64L30.80 13.64L30.80 13.64Q30.80 13.07 30.69 12.61L30.69 12.61L30.69 12.61Q30.58 12.15 30.38 11.82L30.38 11.82L30.38 11.82Q30.17 11.50 29.88 11.32L29.88 11.32L29.88 11.32Q29.59 11.14 29.22 11.14L29.22 11.14L29.22 11.14Q28.93 11.14 28.62 11.27L28.62 11.27L28.62 11.27Q28.31 11.40 28.02 11.66L28.02 11.66L28.02 11.66Q27.73 11.91 27.48 12.29L27.48 12.29L27.48 12.29Q27.23 12.67 27.04 13.16L27.04 13.16ZM25.43 10.12L26.66 10.12L26.66 10.12Q26.74 10.29 26.81 10.62L26.81 10.62L26.81 10.62Q26.89 10.94 26.93 11.42L26.93 11.42L26.93 11.42Q27.17 11.10 27.46 10.83L27.46 10.83L27.46 10.83Q27.74 10.57 28.06 10.38L28.06 10.38L28.06 10.38Q28.38 10.19 28.73 10.09L28.73 10.09L28.73 10.09Q29.08 9.98 29.46 9.98L29.46 9.98L29.46 9.98Q30.04 9.98 30.53 10.24L30.53 10.24L30.53 10.24Q31.01 10.49 31.35 10.95L31.35 10.95L31.35 10.95Q31.68 11.42 31.87 12.05L31.87 12.05L31.87 12.05Q32.06 12.68 32.06 13.43L32.06 13.43L32.06 13.43Q32.06 14.31 31.81 15.02L31.81 15.02L31.81 15.02Q31.57 15.72 31.15 16.22L31.15 16.22L31.15 16.22Q30.73 16.72 30.16 16.99L30.16 16.99L30.16 16.99Q29.59 17.26 28.95 17.26L28.95 17.26L28.95 17.26Q28.68 17.26 28.43 17.21L28.43 17.21L28.43 17.21Q28.19 17.15 27.96 17.06L27.96 17.06L27.96 17.06Q27.73 16.96 27.51 16.82L27.51 16.82L27.51 16.82Q27.28 16.68 27.04 16.51L27.04 16.51L27.04 18.12L27.04 18.12Q27.04 18.53 27.05 18.86L27.05 18.86L27.05 18.86Q27.06 19.19 27.08 19.47L27.08 19.47L27.08 19.47Q27.10 19.75 27.13 19.98L27.13 19.98L27.13 19.98Q27.17 20.22 27.21 20.44L27.21 20.44L25.77 20.44L25.77 13.77L25.77 13.77Q25.77 13.14 25.76 12.60L25.76 12.60L25.76 12.60Q25.75 12.05 25.72 11.60L25.72 11.60L25.72 11.60Q25.68 11.14 25.61 10.77L25.61 10.77L25.61 10.77Q25.55 10.40 25.43 10.12L25.43 10.12ZM35.27 6.15L35.27 13.84L35.27 13.84Q35.27 14.17 35.28 14.62L35.28 14.62L35.28 14.62Q35.29 15.06 35.31 15.52L35.31 15.52L35.31 15.52Q35.33 15.98 35.35 16.39L35.35 16.39L35.35 16.39Q35.38 16.81 35.41 17.09L35.41 17.09L34.01 17.09L34.01 9.37L34.01 9.37Q34.01 8.37 33.97 7.56L33.97 7.56L33.97 7.56Q33.94 6.75 33.87 6.15L33.87 6.15L35.27 6.15ZM43.33 13.77L38.49 13.77L38.49 13.77Q38.51 14.38 38.67 14.82L38.67 14.82L38.67 14.82Q38.84 15.26 39.13 15.56L39.13 15.56L39.13 15.56Q39.42 15.85 39.82 15.99L39.82 15.99L39.82 15.99Q40.21 16.13 40.67 16.13L40.67 16.13L40.67 16.13Q41.34 16.13 41.97 15.98L41.97 15.98L41.97 15.98Q42.61 15.83 43.24 15.45L43.24 15.45L43.37 16.58L43.37 16.58Q43.01 16.76 42.66 16.89L42.66 16.89L42.66 16.89Q42.31 17.02 41.97 17.10L41.97 17.10L41.97 17.10Q41.62 17.19 41.26 17.22L41.26 17.22L41.26 17.22Q40.90 17.26 40.50 17.26L40.50 17.26L40.50 17.26Q39.85 17.26 39.25 17.03L39.25 17.03L39.25 17.03Q38.66 16.80 38.21 16.35L38.21 16.35L38.21 16.35Q37.75 15.91 37.49 15.24L37.49 15.24L37.49 15.24Q37.22 14.58 37.22 13.71L37.22 13.71L37.22 13.71Q37.22 12.86 37.45 12.17L37.45 12.17L37.45 12.17Q37.68 11.48 38.10 11.00L38.10 11.00L38.10 11.00Q38.53 10.51 39.14 10.24L39.14 10.24L39.14 10.24Q39.74 9.98 40.50 9.98L40.50 9.98L40.50 9.98Q41.06 9.98 41.49 10.11L41.49 10.11L41.49 10.11Q41.92 10.25 42.24 10.48L42.24 10.48L42.24 10.48Q42.55 10.72 42.77 11.03L42.77 11.03L42.77 11.03Q42.98 11.35 43.10 11.71L43.10 11.71L43.10 11.71Q43.23 12.07 43.29 12.47L43.29 12.47L43.29 12.47Q43.34 12.86 43.34 13.24L43.34 13.24L43.34 13.51L43.34 13.51Q43.34 13.68 43.33 13.77L43.33 13.77ZM40.40 11.01L40.40 11.01L40.40 11.01Q39.65 11.01 39.17 11.45L39.17 11.45L39.17 11.45Q38.69 11.89 38.54 12.82L38.54 12.82L42.11 12.82L42.11 12.82Q42.11 12.38 41.98 12.04L41.98 12.04L41.98 12.04Q41.86 11.70 41.63 11.47L41.63 11.47L41.63 11.47Q41.40 11.24 41.08 11.12L41.08 11.12L41.08 11.12Q40.77 11.01 40.40 11.01ZM48.88 7.90L48.88 7.90L48.88 7.90Q48.88 7.70 48.94 7.54L48.94 7.54L48.94 7.54Q49 7.37 49.11 7.24L49.11 7.24L49.11 7.24Q49.23 7.12 49.38 7.04L49.38 7.04L49.38 7.04Q49.54 6.97 49.73 6.97L49.73 6.97L49.73 6.97Q49.92 6.97 50.09 7.04L50.09 7.04L50.09 7.04Q50.25 7.12 50.37 7.24L50.37 7.24L50.37 7.24Q50.48 7.37 50.55 7.54L50.55 7.54L50.55 7.54Q50.62 7.70 50.62 7.90L50.62 7.90L50.62 7.90Q50.62 8.09 50.55 8.25L50.55 8.25L50.55 8.25Q50.48 8.42 50.37 8.55L50.37 8.55L50.37 8.55Q50.25 8.67 50.09 8.75L50.09 8.75L50.09 8.75Q49.92 8.82 49.73 8.82L49.73 8.82L49.73 8.82Q49.54 8.82 49.38 8.75L49.38 8.75L49.38 8.75Q49.23 8.67 49.11 8.55L49.11 8.55L49.11 8.55Q49 8.42 48.94 8.25L48.94 8.25L48.94 8.25Q48.88 8.09 48.88 7.90ZM50.38 10.12L50.38 13.84L50.38 13.84Q50.38 14.17 50.39 14.62L50.39 14.62L50.39 14.62Q50.40 15.07 50.42 15.52L50.42 15.52L50.42 15.52Q50.44 15.98 50.46 16.40L50.46 16.40L50.46 16.40Q50.48 16.82 50.52 17.09L50.52 17.09L49.12 17.09L49.12 13.47L49.12 13.47Q49.12 12.97 49.11 12.48L49.11 12.48L49.11 12.48Q49.11 12.00 49.10 11.56L49.10 11.56L49.10 11.56Q49.09 11.13 49.07 10.76L49.07 10.76L49.07 10.76Q49.05 10.38 49.01 10.12L49.01 10.12L50.38 10.12ZM58.86 17.09L57.59 17.09L57.59 13.33L57.59 13.33Q57.59 12.69 57.51 12.27L57.51 12.27L57.51 12.27Q57.42 11.85 57.25 11.61L57.25 11.61L57.25 11.61Q57.09 11.37 56.83 11.27L56.83 11.27L56.83 11.27Q56.57 11.18 56.23 11.18L56.23 11.18L56.23 11.18Q55.86 11.18 55.50 11.35L55.50 11.35L55.50 11.35Q55.15 11.53 54.86 11.80L54.86 11.80L54.86 11.80Q54.56 12.08 54.34 12.43L54.34 12.43L54.34 12.43Q54.11 12.78 54.00 13.13L54.00 13.13L54.00 17.09L52.74 17.09L52.74 12.89L52.74 12.89Q52.74 11.87 52.63 11.17L52.63 11.17L52.63 11.17Q52.51 10.47 52.40 10.12L52.40 10.12L53.63 10.12L53.63 10.12Q53.67 10.23 53.71 10.40L53.71 10.40L53.71 10.40Q53.75 10.58 53.79 10.77L53.79 10.77L53.79 10.77Q53.82 10.96 53.85 11.14L53.85 11.14L53.90 11.45L53.90 11.45Q54.55 10.67 55.21 10.33L55.21 10.33L55.21 10.33Q55.88 9.98 56.60 9.98L56.60 9.98L56.60 9.98Q57.70 9.98 58.28 10.69L58.28 10.69L58.28 10.69Q58.86 11.41 58.86 12.82L58.86 12.82L58.86 17.09ZM66.96 17.09L65.69 17.09L65.69 13.33L65.69 13.33Q65.69 12.69 65.61 12.27L65.61 12.27L65.61 12.27Q65.52 11.85 65.35 11.61L65.35 11.61L65.35 11.61Q65.19 11.37 64.93 11.27L64.93 11.27L64.93 11.27Q64.67 11.18 64.33 11.18L64.33 11.18L64.33 11.18Q63.96 11.18 63.60 11.35L63.60 11.35L63.60 11.35Q63.25 11.53 62.96 11.80L62.96 11.80L62.96 11.80Q62.67 12.08 62.44 12.43L62.44 12.43L62.44 12.43Q62.21 12.78 62.10 13.13L62.10 13.13L62.10 17.09L60.84 17.09L60.84 12.89L60.84 12.89Q60.84 11.87 60.73 11.17L60.73 11.17L60.73 11.17Q60.61 10.47 60.50 10.12L60.50 10.12L61.73 10.12L61.73 10.12Q61.77 10.23 61.81 10.40L61.81 10.40L61.81 10.40Q61.85 10.58 61.89 10.77L61.89 10.77L61.89 10.77Q61.92 10.96 61.95 11.14L61.95 11.14L62.00 11.45L62.00 11.45Q62.65 10.67 63.31 10.33L63.31 10.33L63.31 10.33Q63.98 9.98 64.70 9.98L64.70 9.98L64.70 9.98Q65.80 9.98 66.38 10.69L66.38 10.69L66.38 10.69Q66.96 11.41 66.96 12.82L66.96 12.82L66.96 17.09Z"></path></g><defs data-v-423bf9ae=""><linearGradient data-v-423bf9ae="" gradientTransform="rotate(25)" id="61a2b1ed-e1d0-43fd-8384-168089039ab0" x1="0%" y1="0%" x2="100%" y2="0%"><stop data-v-423bf9ae="" offset="0%" style="stop-color: rgb(23, 119, 117); stop-opacity: 1;"></stop><stop data-v-423bf9ae="" offset="100%" style="stop-color: rgb(40, 210, 191); stop-opacity: 1;"></stop></linearGradient></defs><g data-v-423bf9ae="" id="6a391091-0c3b-47a8-8933-5c22048e91a8" transform="matrix(1.399999976158142,0,0,1.399999976158142,-0.5999984741210938,-0.5999984741210938)" stroke="none" fill="url(#61a2b1ed-e1d0-43fd-8384-168089039ab0)"><path d="M111 2.892v106.223c0 .472-.021 1.019-.371 1.417-.391.445-1.046.469-1.58.469h-71.01c-.823 0-1.039-.707-1.039-1.532V39.084l-17-18.87V127h107V18.518L111 2.892z"></path><path d="M88 20H20.066l18.551 18H88z"></path><path d="M91 18.518v20.005l-.052 52.224L108 106.173V1H1v108.468l16 15.625V18.518c0-.825.613-1.518 1.438-1.518h71.351c.824 0 1.211.693 1.211 1.518z"></path><path d="M90.793 91C90.528 91.242 39 91 39 91v17h66.998L90.793 91z"></path></g><!----></svg>